<svg width="500" height="500" fill="none" xmlns="http://www.w3.org/2000/svg"><path fill-rule="evenodd" clip-rule="evenodd" d="M250 0c-10 0-20 3-28 9L35 156c-17 13-8 40 13 40h23v180a45 45 0 0 0 45 45h268a45 45 0 0 0 45-45V196h23c21 0 30-27 13-40L278 9c-8-6-18-9-28-9Zm105 211a16 16 0 0 0-27-11L220 308l-49-49a16 16 0 1 0-22 23l59 59a17 17 0 0 0 24 0l118-119c3-3 5-7 5-11Z" fill="#0EC95F"/><path d="M350 200a16 16 0 0 1 0 22L232 341a17 17 0 0 1-24 0l-59-59a16 16 0 1 1 22-23l49 49 108-108a16 16 0 0 1 22 0Z" fill="#fff"/><path d="M355 312a71 71 0 0 0-75 75c0 24 19 47 28 57 10 9 47 56 47 56s37-47 47-56c9-10 28-33 28-57a72 72 0 0 0-75-75Zm0 106a30 30 0 0 1-30-37 31 31 0 0 1 42-22 30 30 0 0 1 10 50 30 30 0 0 1-22 9Z" fill="#F3322A"/><path d="M355 418a30 30 0 0 1-30-37 31 31 0 0 1 42-22 30 30 0 0 1 10 50 30 30 0 0 1-22 9Z" fill="#fff"/></svg>